<svg width="122" height="35" viewBox="0 0 122 35" fill="none" xmlns="http://www.w3.org/2000/svg">
<path fill-rule="evenodd" clip-rule="evenodd" d="M76.7002 10.3101L74.7002 6.93014L71.1502 8.62014L69.1502 5.23014L65.6002 6.93014L63.6102 3.53014L60.0602 5.23014L58.0602 1.84014L54.5102 3.54014L52.5202 0.140137L48.9602 1.84014L41.4302 26.3601L50.5802 29.1601C50.9248 28.055 51.6535 27.1095 52.6344 26.4947C53.6153 25.8798 54.7838 25.6361 55.9287 25.8076C57.0736 25.9791 58.1194 26.5545 58.8771 27.4298C59.6348 28.305 60.0545 29.4225 60.0602 30.5801V30.6801C60.0802 31.1201 60.0302 31.5601 59.9002 32.0001L69.2002 34.8501L76.7002 10.3101Z" fill="#D61920"/>
<path fill-rule="evenodd" clip-rule="evenodd" d="M49.28 24.34C49.0487 24.3017 48.8388 24.1818 48.6884 24.002C48.5379 23.8222 48.4569 23.5944 48.46 23.36V11.36C48.4587 11.2283 48.4837 11.0976 48.5334 10.9757C48.5832 10.8538 48.6568 10.743 48.75 10.6499C48.8431 10.5568 48.9539 10.4832 49.0758 10.4334C49.1977 10.3836 49.3284 10.3586 49.46 10.36H58.1301C58.6409 10.3587 59.147 10.458 59.6194 10.6523C60.0919 10.8465 60.5215 11.132 60.8836 11.4923C61.2458 11.8525 61.5334 12.2806 61.7301 12.7521C61.9268 13.2236 62.0287 13.7291 62.03 14.24V23.36C62.0298 23.5073 61.997 23.6527 61.934 23.7858C61.871 23.9189 61.7794 24.0365 61.6658 24.1301C61.5521 24.2237 61.4191 24.2911 61.2764 24.3274C61.1336 24.3637 60.9846 24.368 60.84 24.34C60.6106 24.2996 60.403 24.1788 60.2546 23.9992C60.1061 23.8196 60.0265 23.593 60.03 23.36V14.25C60.03 13.7461 59.8299 13.2628 59.4736 12.9065C59.1172 12.5502 58.634 12.35 58.1301 12.35H56.2401V23.35C56.2408 23.484 56.2147 23.6167 56.1631 23.7404C56.1116 23.8641 56.0357 23.9762 55.94 24.07C55.8262 24.1829 55.6866 24.2664 55.5333 24.3135C55.38 24.3605 55.2176 24.3696 55.0601 24.34C54.8287 24.3017 54.6188 24.1818 54.4684 24.002C54.3179 23.8222 54.2369 23.5944 54.2401 23.36V12.35H50.46V23.35C50.461 23.4971 50.4294 23.6426 50.3677 23.7761C50.3059 23.9096 50.2155 24.0279 50.1028 24.1224C49.9901 24.217 49.8579 24.2855 49.7157 24.3231C49.5735 24.3607 49.4247 24.3665 49.28 24.34ZM63.7001 29.57C63.467 29.5315 63.2557 29.4101 63.105 29.2282C62.9544 29.0463 62.8745 28.8161 62.8801 28.58C62.8812 28.3176 62.9853 28.0662 63.17 27.88C63.3547 27.6916 63.6063 27.5837 63.87 27.58C64.72 27.58 65.4501 27.04 65.6901 26.23L66.7201 22.8L63.35 11.53C63.3099 11.4039 63.2951 11.2712 63.3066 11.1394C63.318 11.0076 63.3556 10.8794 63.417 10.7622C63.4783 10.645 63.5624 10.5411 63.6642 10.4566C63.766 10.3722 63.8835 10.3087 64.01 10.27C64.2619 10.2002 64.531 10.2297 64.7618 10.3525C64.9925 10.4753 65.1673 10.682 65.25 10.93L67.75 19.33L70.2901 10.93C70.4101 10.47 70.9201 10.16 71.4401 10.26L71.5101 10.27C72.0501 10.44 72.3501 11.01 72.1901 11.54L68.7201 23.1L67.6201 26.8C67.3732 27.5962 66.8837 28.2955 66.2201 28.8C65.545 29.3063 64.7239 29.58 63.8801 29.58C63.8199 29.5823 63.7596 29.5789 63.7001 29.57Z" fill="#FEFEFE"/>
<path fill-rule="evenodd" clip-rule="evenodd" d="M2.5801 22.1504H4.5401C5.06258 22.1504 5.56365 21.9428 5.9331 21.5734C6.30255 21.2039 6.5101 20.7028 6.5101 20.1804V14.4104C6.51142 14.1517 6.46176 13.8952 6.36398 13.6557C6.26619 13.4162 6.12218 13.1983 5.94018 13.0144C5.75817 12.8306 5.54174 12.6844 5.30323 12.5841C5.06472 12.4839 4.8088 12.4317 4.5501 12.4304H2.5801V22.1304V22.1504ZM1.3501 24.2104C1.10999 24.1698 0.892309 24.0447 0.736414 23.8576C0.58052 23.6705 0.496698 23.4338 0.5001 23.1904V5.27036C0.498332 5.13325 0.523957 4.99718 0.575473 4.8701C0.626988 4.74303 0.703356 4.62753 0.8001 4.53036C0.917145 4.40882 1.06226 4.3179 1.22268 4.26559C1.38309 4.21328 1.55391 4.20118 1.7201 4.23036C2.2201 4.33036 2.5801 4.75036 2.5801 5.26036V10.3604H4.5401C5.07148 10.359 5.5979 10.4626 6.08921 10.665C6.58052 10.8675 7.02707 11.1648 7.40328 11.5401C7.77949 11.9154 8.07797 12.3612 8.28162 12.852C8.48527 13.3428 8.5901 13.869 8.5901 14.4004V20.1704C8.58746 21.241 8.16097 22.2671 7.40389 23.0242C6.64682 23.7812 5.62076 24.2077 4.5501 24.2104H1.5401C1.47327 24.2143 1.4062 24.211 1.3401 24.2004L1.3501 24.2104Z" fill="#333545"/>
<path fill-rule="evenodd" clip-rule="evenodd" d="M15.64 12.3499C15.5277 12.3303 15.414 12.3203 15.3 12.3199C15.0406 12.3172 14.7832 12.3664 14.543 12.4644C14.3028 12.5625 14.0845 12.7075 13.9011 12.891C13.7176 13.0744 13.5726 13.2927 13.4745 13.5329C13.3765 13.7731 13.3273 14.0305 13.33 14.2899V20.2999C13.3287 20.559 13.3787 20.8158 13.4773 21.0554C13.5758 21.295 13.7209 21.5127 13.9041 21.6959C14.0873 21.8791 14.305 22.0241 14.5446 22.1227C14.7842 22.2212 15.0409 22.2712 15.3 22.2699C15.8225 22.2699 16.3236 22.0624 16.693 21.6929C17.0625 21.3235 17.27 20.8224 17.27 20.2999V14.2999C17.27 13.3299 16.58 12.5199 15.64 12.3499ZM14.59 24.2999C13.6524 24.135 12.8032 23.6442 12.1921 22.9142C11.5811 22.1842 11.2474 21.2619 11.25 20.3099V14.2999C11.2483 13.768 11.3526 13.2411 11.5569 12.75C11.7613 12.259 12.0615 11.8136 12.44 11.4399C12.8155 11.0645 13.2615 10.767 13.7523 10.5645C14.2431 10.362 14.7691 10.2585 15.3 10.2599C16.3715 10.2599 17.3991 10.6856 18.1567 11.4432C18.9144 12.2009 19.34 13.2284 19.34 14.2999V20.3099C19.34 21.3899 18.92 22.4099 18.15 23.1799C17.7761 23.5546 17.3318 23.8517 16.8427 24.0541C16.3536 24.2566 15.8294 24.3606 15.3 24.3599C15.062 24.3609 14.8245 24.3408 14.59 24.2999ZM26.39 12.3599C26.2778 12.3402 26.164 12.3302 26.05 12.3299C25.7906 12.3272 25.5332 12.3764 25.293 12.4744C25.0528 12.5725 24.8345 12.7175 24.6511 12.901C24.4676 13.0844 24.3226 13.3027 24.2245 13.5429C24.1265 13.7831 24.0773 14.0405 24.08 14.2999V20.3099C24.0787 20.569 24.1287 20.8258 24.2273 21.0654C24.3258 21.305 24.4709 21.5227 24.6541 21.7059C24.8373 21.8891 25.055 22.0341 25.2946 22.1327C25.5342 22.2312 25.7909 22.2812 26.05 22.2799C26.3091 22.2812 26.5659 22.2312 26.8055 22.1327C27.0451 22.0341 27.2628 21.8891 27.446 21.7059C27.6292 21.5227 27.7742 21.305 27.8728 21.0654C27.9713 20.8258 28.0213 20.569 28.02 20.3099V14.2999C28.02 13.3399 27.33 12.5299 26.39 12.3599ZM25.34 24.2999C24.4043 24.1329 23.5574 23.6412 22.9483 22.9114C22.3392 22.1816 22.007 21.2605 22.01 20.3099V14.2999C22.0116 13.7106 22.1418 13.1287 22.3915 12.5948C22.6412 12.061 23.0043 11.5881 23.4557 11.2091C23.907 10.8301 24.4357 10.5542 25.0046 10.4006C25.5736 10.247 26.1693 10.2195 26.75 10.3199C27.6878 10.4825 28.538 10.9708 29.1509 11.699C29.7637 12.4271 30.0999 13.3482 30.1 14.2999V20.3099C30.1012 20.8441 29.9957 21.3732 29.7897 21.866C29.5836 22.3589 29.2811 22.8056 28.9 23.1799C28.5261 23.5546 28.0818 23.8517 27.5927 24.0541C27.1036 24.2566 26.5794 24.3606 26.05 24.3599C25.81 24.3599 25.57 24.3399 25.34 24.2999ZM33.61 24.3399C33.3699 24.2994 33.1522 24.1742 32.9963 23.9872C32.8404 23.8001 32.7566 23.5634 32.76 23.3199V5.26991C32.76 4.98991 32.86 4.71991 33.06 4.52991C33.178 4.41347 33.3223 4.3272 33.4807 4.27846C33.6392 4.22971 33.807 4.21992 33.97 4.24991C34.47 4.32991 34.84 4.75991 34.84 5.26991V15.9499L39.62 10.5899C39.86 10.3299 40.22 10.2099 40.58 10.2699C40.7615 10.3003 40.9316 10.3787 41.0725 10.4971C41.2134 10.6155 41.3201 10.7694 41.3813 10.943C41.4426 11.1165 41.4562 11.3033 41.4208 11.4839C41.3854 11.6645 41.3023 11.8323 41.18 11.9699L37.57 15.9999L41.3 22.8299C41.3672 22.9451 41.4106 23.0726 41.4278 23.2048C41.445 23.337 41.4355 23.4714 41.4 23.5999C41.3614 23.7324 41.2962 23.8556 41.2086 23.9622C41.1209 24.0688 41.0125 24.1564 40.89 24.2199C40.6783 24.3416 40.4302 24.3842 40.19 24.3399C40.0406 24.3147 39.8986 24.2568 39.7742 24.1703C39.6497 24.0839 39.5459 23.9711 39.47 23.8399L36.11 17.6599L34.83 19.0699V23.3199C34.83 23.5957 34.7204 23.8603 34.5254 24.0553C34.3304 24.2503 34.0658 24.3599 33.79 24.3599C33.72 24.3599 33.66 24.3599 33.59 24.3399H33.61ZM79.42 24.3299C78.8577 24.2357 78.3234 24.0172 77.8563 23.6902C77.3892 23.3632 77.001 22.9361 76.72 22.4399C76.5826 22.1968 76.5467 21.9093 76.62 21.6399C76.7 21.3799 76.87 21.1599 77.1 21.0199C77.3136 20.9032 77.561 20.8644 77.8 20.9099C78.1 20.9599 78.37 21.1399 78.52 21.4099C78.79 21.8699 79.22 22.1699 79.75 22.2599C80.0233 22.3074 80.3037 22.2925 80.5704 22.2163C80.8371 22.1401 81.0831 22.0046 81.29 21.8199C81.69 21.4499 81.89 20.9199 81.84 20.3999C81.8289 20.1334 81.7552 19.8732 81.6249 19.6404C81.4947 19.4076 81.3114 19.2088 81.09 19.0599L78.29 17.0699C77.8338 16.7496 77.4539 16.3326 77.1774 15.8486C76.9008 15.3646 76.7344 14.8256 76.69 14.2699C76.6538 13.7093 76.7458 13.1478 76.9589 12.628C77.172 12.1082 77.5007 11.6438 77.92 11.2699C78.3291 10.8896 78.8178 10.6052 79.3506 10.4374C79.8834 10.2697 80.4468 10.2227 81 10.2999C82.18 10.4999 83.14 11.1799 83.69 12.1399C83.8225 12.3798 83.857 12.6617 83.7861 12.9265C83.7153 13.1912 83.5446 13.4183 83.31 13.5599C83.0983 13.6816 82.8502 13.7242 82.61 13.6799C82.4606 13.6547 82.3186 13.5968 82.1942 13.5103C82.0697 13.4239 81.9659 13.3111 81.89 13.1799C81.7646 12.9678 81.5937 12.786 81.3897 12.6477C81.1857 12.5094 80.9536 12.4179 80.71 12.3799C80.4609 12.3348 80.2046 12.3484 79.9616 12.4196C79.7186 12.4907 79.4955 12.6175 79.31 12.7899C79.1289 12.9608 78.9876 13.1694 78.896 13.401C78.8044 13.6325 78.7648 13.8814 78.78 14.1299C78.8 14.6199 79.08 15.0999 79.5 15.3799L82.3 17.3299C82.7753 17.6627 83.1684 18.0997 83.4491 18.6074C83.7299 19.1152 83.8909 19.6804 83.92 20.2599C83.9663 20.8367 83.8775 21.4163 83.6605 21.9528C83.4435 22.4892 83.1043 22.9676 82.67 23.3499C82.2476 23.7424 81.743 24.0358 81.1929 24.2088C80.6428 24.3818 80.0611 24.43 79.49 24.3499L79.41 24.3299H79.42ZM87.45 24.3599C87.2098 24.3177 86.9921 24.1924 86.8349 24.006C86.6777 23.8195 86.591 23.5838 86.59 23.3399V5.28991C86.5887 5.15297 86.6147 5.01713 86.6665 4.89035C86.7183 4.76357 86.7948 4.64839 86.8917 4.55155C86.9885 4.45471 87.1037 4.37815 87.2305 4.32636C87.3572 4.27457 87.4931 4.24858 87.63 4.24991L87.83 4.25991C88.33 4.35991 88.67 4.76991 88.67 5.28991V10.3899H90.64C91.1709 10.3886 91.6969 10.4922 92.1876 10.6948C92.6784 10.8973 93.1243 11.1948 93.4997 11.5703C93.8751 11.9457 94.1726 12.3916 94.3752 12.8823C94.5777 13.3731 94.6813 13.899 94.68 14.4299V23.3299C94.6809 23.4809 94.6485 23.6302 94.5853 23.7673C94.522 23.9045 94.4294 24.026 94.3139 24.1233C94.1985 24.2206 94.063 24.2914 93.9172 24.3305C93.7714 24.3697 93.6187 24.3763 93.47 24.3499C92.97 24.2599 92.61 23.8299 92.61 23.3199V14.4199C92.61 14.1617 92.559 13.906 92.4599 13.6675C92.3608 13.4291 92.2155 13.2126 92.0324 13.0304C91.8494 12.8483 91.6321 12.7041 91.3932 12.6062C91.1542 12.5083 90.8983 12.4586 90.64 12.4599H88.67V23.3299C88.6712 23.4819 88.6386 23.6323 88.5748 23.7702C88.5109 23.9082 88.4173 24.0303 88.3007 24.1278C88.1841 24.2253 88.0473 24.2958 87.9003 24.3342C87.7532 24.3726 87.5994 24.378 87.45 24.3499V24.3599ZM101.73 12.3699C101.447 12.3185 101.155 12.3301 100.877 12.404C100.599 12.4779 100.34 12.6123 100.119 12.7975C99.8989 12.9827 99.7219 13.2143 99.601 13.4757C99.4801 13.7371 99.4183 14.0219 99.42 14.3099V20.3199C99.4187 20.5781 99.4684 20.8341 99.5663 21.073C99.6642 21.312 99.8084 21.5292 99.9905 21.7123C100.173 21.8954 100.389 22.0406 100.628 22.1398C100.866 22.2389 101.122 22.2899 101.38 22.2899C101.9 22.2899 102.4 22.0899 102.77 21.7199C102.955 21.5371 103.102 21.319 103.202 21.0786C103.301 20.8381 103.352 20.5802 103.35 20.3199V14.2999C103.35 13.3399 102.67 12.5199 101.72 12.3599L101.73 12.3699ZM100.67 24.2899C99.7351 24.125 98.8884 23.6353 98.2792 22.9072C97.67 22.1791 97.3374 21.2593 97.34 20.3099V14.2999C97.3401 13.7097 97.4692 13.1267 97.7183 12.5916C97.9674 12.0565 98.3304 11.5824 98.7819 11.2023C99.2334 10.8222 99.7625 10.5454 100.332 10.3913C100.902 10.2371 101.498 10.2094 102.08 10.3099C103.019 10.4728 103.871 10.9626 104.484 11.6928C105.097 12.423 105.432 13.3465 105.43 14.2999V20.3099C105.43 20.8425 105.325 21.3698 105.119 21.861C104.912 22.3521 104.61 22.7971 104.23 23.1699C103.771 23.6305 103.208 23.973 102.588 24.1681C101.968 24.3631 101.31 24.4049 100.67 24.2899Z" fill="#333545"/>
<path fill-rule="evenodd" clip-rule="evenodd" d="M121.4 11.5403C121.434 11.4132 121.443 11.2807 121.426 11.1503C121.409 11.0199 121.366 10.8942 121.3 10.7803C121.225 10.6589 121.126 10.5539 121.009 10.4714C120.892 10.389 120.76 10.3308 120.62 10.3003C120.362 10.2515 120.096 10.303 119.874 10.4443C119.653 10.5855 119.494 10.8058 119.43 11.0603C119.43 11.1103 118.31 15.6203 117.43 19.0503L117.41 19.1203L117.39 19.0503L115.39 11.0703C115.352 10.8755 115.254 10.6972 115.111 10.5595C114.968 10.4218 114.786 10.3313 114.59 10.3003C114.531 10.2886 114.471 10.2819 114.41 10.2803C113.95 10.2803 113.55 10.6003 113.42 11.0603C113.41 11.1103 112.29 15.6203 111.42 19.0503L111.4 19.1203L111.38 19.0503C110.53 15.6203 109.38 11.1103 109.38 11.0603C109.333 10.8689 109.231 10.6952 109.088 10.5604C108.944 10.4255 108.764 10.3351 108.57 10.3003C108.404 10.2708 108.232 10.2833 108.072 10.3364C107.911 10.3895 107.767 10.4817 107.651 10.6047C107.535 10.7277 107.451 10.8775 107.407 11.0408C107.364 11.2042 107.361 11.3758 107.4 11.5403L110.41 23.5703C110.467 23.7907 110.595 23.9864 110.774 24.1273C110.952 24.2682 111.172 24.3465 111.4 24.3503C111.89 24.3503 112.28 24.0303 112.38 23.5703L114.38 15.5803L114.41 15.5103L114.43 15.5803C115.31 19.0503 116.43 23.5803 116.43 23.5803C116.49 23.7965 116.617 23.9878 116.794 24.1264C116.97 24.265 117.186 24.3434 117.41 24.3503C117.641 24.3575 117.866 24.2832 118.047 24.1405C118.228 23.9979 118.353 23.796 118.4 23.5703L121.4 11.5403Z" fill="#333545"/>
</svg>
